<svg width="40" height="28" viewBox="0 0 40 28" fill="none" xmlns="http://www.w3.org/2000/svg">
<path d="M39.905 10.1629L37.5717 4.33172C37.3736 3.83809 37.0318 3.41533 36.5904 3.11825C36.1491 2.82118 35.6287 2.66351 35.0967 2.66567H29.3333V1.33284C29.3333 0.979346 29.1929 0.640334 28.9428 0.390379C28.6928 0.140424 28.3536 0 28 0H2.66667C1.95942 0 1.28115 0.280847 0.781048 0.780757C0.280951 1.28067 0 1.95869 0 2.66567V21.3254C0 22.0323 0.280951 22.7104 0.781048 23.2103C1.28115 23.7102 1.95942 23.991 2.66667 23.991H5.5C5.79373 25.1378 6.46093 26.1543 7.39641 26.8801C8.33189 27.606 9.48244 28 10.6667 28C11.8509 28 13.0014 27.606 13.9369 26.8801C14.8724 26.1543 15.5396 25.1378 15.8333 23.991H24.1667C24.4604 25.1378 25.1276 26.1543 26.0631 26.8801C26.9986 27.606 28.1491 28 29.3333 28C30.5176 28 31.6681 27.606 32.6036 26.8801C33.5391 26.1543 34.2063 25.1378 34.5 23.991H37.3333C38.0406 23.991 38.7189 23.7102 39.2189 23.2103C39.719 22.7104 40 22.0323 40 21.3254V10.6627C40.0003 10.4916 39.9681 10.3219 39.905 10.1629ZM10.6667 25.3239C10.1392 25.3239 9.62368 25.1675 9.18515 24.8746C8.74661 24.5817 8.40482 24.1654 8.20299 23.6783C8.00115 23.1912 7.94834 22.6552 8.05124 22.1382C8.15413 21.6211 8.40811 21.1461 8.78105 20.7733C9.15399 20.4005 9.62914 20.1466 10.1464 20.0438C10.6637 19.9409 11.1999 19.9937 11.6872 20.1954C12.1744 20.3972 12.5909 20.7389 12.8839 21.1772C13.1769 21.6156 13.3333 22.131 13.3333 22.6582C13.3333 23.3652 13.0524 24.0432 12.5523 24.5431C12.0522 25.043 11.3739 25.3239 10.6667 25.3239ZM2.66667 13.3284V2.66567H26.6667V13.3284H2.66667ZM29.3333 25.3239C28.8059 25.3239 28.2903 25.1675 27.8518 24.8746C27.4133 24.5817 27.0715 24.1654 26.8697 23.6783C26.6678 23.1912 26.615 22.6552 26.7179 22.1382C26.8208 21.6211 27.0748 21.1461 27.4477 20.7733C27.8207 20.4005 28.2958 20.1466 28.8131 20.0438C29.3304 19.9409 29.8666 19.9937 30.3538 20.1954C30.8411 20.3972 31.2576 20.7389 31.5506 21.1772C31.8436 21.6156 32 22.131 32 22.6582C32 23.3652 31.719 24.0432 31.2189 24.5431C30.7189 25.043 30.0406 25.3239 29.3333 25.3239ZM29.3333 9.32985V5.33134H35.0967L36.6967 9.32985H29.3333Z" fill="white"/>
</svg>
