<svg width="20" height="21" viewBox="0 0 20 21" fill="none" xmlns="http://www.w3.org/2000/svg">
<path d="M6.4 15.6561L10 12.0819L13.6 15.6561L15 14.2662L11.4 10.692L15 7.11779L13.6 5.72783L10 9.30202L6.4 5.72783L5 7.11779L8.6 10.692L5 14.2662L6.4 15.6561ZM10 20.6203C8.61667 20.6203 7.31667 20.3595 6.1 19.8379C4.88334 19.3164 3.825 18.6092 2.925 17.7163C2.025 16.8234 1.31267 15.7726 0.788001 14.564C0.263335 13.3554 0.000667933 12.0647 1.26582e-06 10.692C-0.000665401 9.31923 0.262001 8.02855 0.788001 6.81994C1.314 5.61134 2.02633 4.56059 2.925 3.6677C3.82367 2.77482 4.882 2.06759 6.1 1.54602C7.318 1.02446 8.618 0.763672 10 0.763672C11.382 0.763672 12.682 1.02446 13.9 1.54602C15.118 2.06759 16.1763 2.77482 17.075 3.6677C17.9737 4.56059 18.6863 5.61134 19.213 6.81994C19.7397 8.02855 20.002 9.31923 20 10.692C19.998 12.0647 19.7353 13.3554 19.212 14.564C18.6887 15.7726 17.9763 16.8234 17.075 17.7163C16.1737 18.6092 15.1153 19.3167 13.9 19.8389C12.6847 20.3612 11.3847 20.6216 10 20.6203Z" fill="black"/>
</svg>
