<svg width="20" height="20" viewBox="0 0 20 20" fill="none" xmlns="http://www.w3.org/2000/svg">
<path d="M6.4 14.953L10 11.3788L13.6 14.953L15 13.5631L11.4 9.98886L15 6.41467L13.6 5.0247L10 8.5989L6.4 5.0247L5 6.41467L8.6 9.98886L5 13.5631L6.4 14.953ZM10 19.9172C8.61667 19.9172 7.31667 19.6564 6.1 19.1348C4.88334 18.6133 3.825 17.906 2.925 17.0131C2.025 16.1203 1.31267 15.0695 0.788001 13.8609C0.263335 12.6523 0.000667933 11.3616 1.26582e-06 9.98886C-0.000665401 8.61611 0.262001 7.32543 0.788001 6.11682C1.314 4.90821 2.02633 3.85747 2.925 2.96458C3.82367 2.07169 4.882 1.36447 6.1 0.842898C7.318 0.321331 8.618 0.0605469 10 0.0605469C11.382 0.0605469 12.682 0.321331 13.9 0.842898C15.118 1.36447 16.1763 2.07169 17.075 2.96458C17.9737 3.85747 18.6863 4.90821 19.213 6.11682C19.7397 7.32543 20.002 8.61611 20 9.98886C19.998 11.3616 19.7353 12.6523 19.212 13.8609C18.6887 15.0695 17.9763 16.1203 17.075 17.0131C16.1737 17.906 15.1153 18.6136 13.9 19.1358C12.6847 19.658 11.3847 19.9185 10 19.9172Z" fill="black"/>
</svg>
