<svg width="27" height="16" viewBox="0 0 27 16" fill="none" xmlns="http://www.w3.org/2000/svg">
<path d="M13.5 0.336914C5.954 0.336914 0 7.99562 0 7.99562C0 7.99562 5.954 15.6553 13.5 15.6553C19.27 15.6553 27 7.99562 27 7.99562C27 7.99562 19.27 0.336914 13.5 0.336914ZM13.5 12.7672C10.85 12.7672 8.693 10.6266 8.693 7.99562C8.693 5.36461 10.85 3.22307 13.5 3.22307C16.15 3.22307 18.307 5.36461 18.307 7.99562C18.307 10.6266 16.15 12.7672 13.5 12.7672ZM13.5 5.20973C13.1271 5.20274 12.7566 5.26962 12.41 5.40646C12.0635 5.5433 11.7479 5.74735 11.4817 6.00669C11.2155 6.26603 11.0041 6.57546 10.8597 6.91687C10.7154 7.25829 10.641 7.62485 10.641 7.99512C10.641 8.36539 10.7154 8.73195 10.8597 9.07337C11.0041 9.41478 11.2155 9.7242 11.4817 9.98354C11.7479 10.2429 12.0635 10.4469 12.41 10.5838C12.7566 10.7206 13.1271 10.7875 13.5 10.7805C14.2349 10.7667 14.935 10.4672 15.4498 9.94636C15.9646 9.42549 16.253 8.72487 16.253 7.99512C16.253 7.26537 15.9646 6.56474 15.4498 6.04388C14.935 5.52302 14.2349 5.22351 13.5 5.20973Z" fill="black"/>
</svg>
