<svg width="18" height="12" viewBox="0 0 18 12" fill="none" xmlns="http://www.w3.org/2000/svg">
<path fill-rule="evenodd" clip-rule="evenodd" d="M8.79987 2.58753C11.2664 2.58764 13.6387 3.55505 15.4263 5.28982C15.5609 5.42375 15.7761 5.42206 15.9086 5.28603L17.1954 3.96045C17.2625 3.89146 17.3 3.798 17.2994 3.70076C17.2988 3.60353 17.2604 3.51052 17.1924 3.44234C12.5005 -1.14745 5.09848 -1.14745 0.406571 3.44234C0.338605 3.51047 0.300042 3.60345 0.299416 3.70069C0.298789 3.79792 0.33615 3.89141 0.403232 3.96045L1.69037 5.28603C1.82286 5.42226 2.03819 5.42396 2.17272 5.28982C3.96056 3.55494 6.33308 2.58752 8.79987 2.58753ZM8.83532 6.58938C10.1905 6.58929 11.4974 7.10346 12.5019 8.03199C12.6378 8.16376 12.8518 8.16091 12.9843 8.02555L14.2696 6.69997C14.3373 6.63044 14.3748 6.53611 14.3738 6.4381C14.3729 6.34008 14.3334 6.24656 14.2644 6.17844C11.2053 3.27385 6.46793 3.27385 3.40886 6.17844C3.33976 6.24656 3.30033 6.34013 3.29942 6.43817C3.29852 6.53622 3.3362 6.63054 3.40403 6.69997L4.68894 8.02555C4.82139 8.16091 5.03543 8.16376 5.1713 8.03199C6.17519 7.10408 7.481 6.58995 8.83532 6.58938ZM11.449 9.17672C11.4509 9.27501 11.4131 9.36977 11.3443 9.43863L9.12106 11.7289C9.05589 11.7962 8.96703 11.834 8.87432 11.834C8.7816 11.834 8.69275 11.7962 8.62757 11.7289L6.40393 9.43863C6.33524 9.36972 6.29745 9.27492 6.29949 9.17663C6.30152 9.07834 6.3432 8.98527 6.41469 8.91938C7.83456 7.69354 9.91408 7.69354 11.3339 8.91938C11.4054 8.98532 11.447 9.07843 11.449 9.17672Z" fill="white"/>
</svg>
